<?xml version="1.0" encoding="iso-8859-1"?>
<!-- Generator: Adobe Illustrator 25.2.3, SVG Export Plug-In . SVG Version: 6.00 Build 0)  -->
<svg fill="#FFFFFF" version="1.1" baseProfile="basic" id="Layer_1"
	 xmlns="http://www.w3.org/2000/svg" xmlns:xlink="http://www.w3.org/1999/xlink" x="0px" y="0px" viewBox="0 0 48 48"
	 xml:space="preserve">
<path d="M28.96,5.66c-3.24-0.88-6.68-0.88-9.92,0L24-0.04L28.96,5.66z"/>
<path d="M14.539,7.524c-2.913,1.669-5.346,4.101-7.014,7.014L7.001,7.001L14.539,7.524z"/>
<path d="M5.66,19.04c-0.88,3.24-0.88,6.68,0,9.92L-0.04,24L5.66,19.04z"/>
<path d="M7.524,33.461c1.669,2.913,4.101,5.346,7.014,7.014l-7.538,0.523L7.524,33.461z"/>
<path d="M19.04,42.34c3.24,0.88,6.68,0.88,9.92,0L24,48.04L19.04,42.34z"/>
<path d="M33.461,40.476c2.913-1.669,5.346-4.101,7.014-7.014l0.523,7.538L33.461,40.476z"/>
<path d="M42.34,28.96c0.88-3.24,0.88-6.68,0-9.92l5.7,4.96L42.34,28.96z"/>
<path d="M40.476,14.539c-1.669-2.913-4.101-5.346-7.014-7.014l7.538-0.523L40.476,14.539z"/>
<circle cx="24" cy="24" r="16"/>
</svg>